# xmcd
# Copyright (C) 1995-1998 Ti Kan
#
# Track frame offsets:
#       150
#       18347
#       36183
#       60953
#       86564
#       115149
#       130901
#       146819
#       164686
#       179098
#       197373
#       216930
#       244513
#
# Disc length: 3579 seconds
#
# Revision: 1
# Processed by: cddbd v1.5.2PL0 Copyright (c) Steve Scherf et al.
# Submitted via: CD-Import v1.0
#
DISCID=b60df90d
DTITLE=The Reds - Fugitives From The Laughing House
DYEAR=07
DGENRE=
TTITLE0=Wild
TTITLE1=Little Cisco
TTITLE2=Ringing The Bell
TTITLE3=Reaching For Gold
TTITLE4=Dum Dum Dice
TTITLE5=Big Town
TTITLE6=Carelessly
TTITLE7=Dark As Night
TTITLE8=Hittin' The Run
TTITLE9=Lethal Dose
TTITLE10=Lost Forever
TTITLE11=Gunn's Suicide
TTITLE12=Can't Bring You Back
EXTD=
EXTT0=
EXTT1=
EXTT2=
EXTT3=
EXTT4=
EXTT5=
EXTT6=
EXTT7=
EXTT8=
EXTT9=
EXTT10=
EXTT11=
EXTT12=
PLAYORDER=
